
            <svg xmlns="http://www.w3.org/2000/svg">
                <filter id="grayscale">
                    <feColorMatrix type="saturate" values="0"/>
                </filter>
                <g filter="url(#grayscale)">
                    <svg xmlns="http://www.w3.org/2000/svg" viewBox="20 155.01462161185685 534.9970006103515 264.9707567762863"> <g transform="rotate(0 190.34705882845066 287.5)"><svg xmlns="http://www.w3.org/2000/svg" xmlns:xlink="http://www.w3.org/1999/xlink" version="1.1" id="Layer_1" x="90" y="225.01462161185685" viewBox="76 105.40000915527344 1842 1147" xml:space="preserve" height="124.97075677628631" width="200.6941176569013" preserveAspectRatio="xMinYMin" enable-background="new 0 0 1994 1357.9" style="overflow: visible;"><path class="st0" d="M1542,416.1H527.9l68.9-127.5c61-112.8,178.9-183.2,307.2-183.2H1918l-68.9,127.5   C1788.2,345.8,1670.2,416.1,1542,416.1z" style="fill: #52C5FF;"></path><path class="st1" d="M938.8,830H304.2l68.9-127.5c61-112.8,178.9-183.2,307.2-183.2h634.6L1246,646.9   C1185,759.7,1067.1,830,938.8,830z" style="fill: #2B8FFC;"></path><path class="st2" d="M258,1252.4H76l68.9-127.5c61-112.8,178.9-183.2,307.2-183.2h182l-68.9,127.5   C504.2,1182.1,386.3,1252.4,258,1252.4z" style="fill: #174CE2;"></path></svg></g> <g transform="rotate(0 357.22100549316406 334.0129996948242)"><svg y="324.818" viewBox="2.4000000953674316 6.590000152587891 246.48001098632812 18.389999389648438" x="233.981" height="18.389999389648438" width="246.48001098632812" style="overflow: visible;"><g fill="#174CE2" fill-opacity="1" style=""><path d="M5.44 17.88L5.44 15.07L14.36 15.07L14.36 17.88L5.44 17.88ZM5.72 9.63L5.72 24.73L2.40 24.73L2.40 6.85L15.45 6.85L15.45 9.63L5.72 9.63ZM28.12 24.73L24.80 24.73L24.80 6.85L32.16 6.85Q34.54 6.85 36.24 7.61Q37.93 8.38 38.85 9.81Q39.77 11.24 39.77 13.21L39.77 13.21Q39.77 15.17 38.85 16.59Q37.93 18.01 36.24 18.76Q34.54 19.52 32.16 19.52L32.16 19.52L26.64 19.52L28.12 18.01L28.12 24.73ZM40.08 24.73L36.50 24.73L31.98 18.24L35.53 18.24L40.08 24.73ZM28.12 8.02L28.12 18.37L26.64 16.78L32.01 16.78Q34.20 16.78 35.32 15.84Q36.43 14.89 36.43 13.21L36.43 13.21Q36.43 11.50 35.32 10.58Q34.20 9.66 32.01 9.66L32.01 9.66L26.64 9.66L28.12 8.02ZM50.50 24.73L47.08 24.73L55.13 6.85L58.40 6.85L66.47 24.73L62.99 24.73L56.07 8.61L57.40 8.61L50.50 24.73ZM62.23 20.59L50.78 20.59L51.68 17.98L61.33 17.98L62.23 20.59ZM83.22 24.98L83.22 24.98Q81.13 24.98 79.38 24.31Q77.63 23.63 76.33 22.39Q75.02 21.15 74.31 19.47Q73.59 17.78 73.59 15.79L73.59 15.79Q73.59 13.79 74.31 12.11Q75.02 10.42 76.34 9.18Q77.66 7.94 79.42 7.27Q81.18 6.59 83.28 6.59L83.28 6.59Q85.55 6.59 87.38 7.33Q89.20 8.07 90.45 9.50L90.45 9.50L88.36 11.55Q87.31 10.50 86.10 10.00Q84.89 9.50 83.43 9.50L83.43 9.50Q82.02 9.50 80.82 9.96Q79.62 10.42 78.75 11.27Q77.89 12.11 77.41 13.26Q76.94 14.41 76.94 15.79L76.94 15.79Q76.94 17.14 77.41 18.29Q77.89 19.44 78.75 20.30Q79.62 21.15 80.80 21.61Q81.97 22.07 83.40 22.07L83.40 22.07Q84.73 22.07 85.97 21.65Q87.21 21.23 88.33 20.23L88.33 20.23L90.22 22.71Q88.82 23.83 86.97 24.41Q85.12 24.98 83.22 24.98ZM90.22 22.71L87.08 22.28L87.08 15.58L90.22 15.58L90.22 22.71ZM107.67 24.73L104.35 24.73L104.35 9.66L98.42 9.66L98.42 6.85L113.60 6.85L113.60 9.66L107.67 9.66L107.67 24.73ZM129.18 24.73L125.86 24.73L125.86 9.66L119.93 9.66L119.93 6.85L135.11 6.85L135.11 9.66L129.18 9.66L129.18 24.73ZM147.06 24.73L143.74 24.73L143.74 6.85L147.06 6.85L147.06 24.73ZM170.69 24.73L158.02 24.73L158.02 6.85L161.34 6.85L161.34 21.92L170.69 21.92L170.69 24.73ZM188.34 24.73L179.45 24.73L179.45 6.85L187.83 6.85Q191.05 6.85 192.74 8.11Q194.42 9.37 194.42 11.50L194.42 11.50Q194.42 12.93 193.76 13.93Q193.09 14.94 191.98 15.49Q190.87 16.04 189.57 16.04L189.57 16.04L190.03 15.12Q191.53 15.12 192.74 15.67Q193.94 16.22 194.64 17.27Q195.34 18.32 195.34 19.87L195.34 19.87Q195.34 22.17 193.58 23.45Q191.82 24.73 188.34 24.73L188.34 24.73ZM182.77 9.45L182.77 22.12L188.14 22.12Q190.00 22.12 191.00 21.51Q191.99 20.90 191.99 19.54L191.99 19.54Q191.99 18.21 191.00 17.59Q190.00 16.96 188.14 16.96L188.14 16.96L182.52 16.96L182.52 14.38L187.47 14.38Q189.21 14.38 190.14 13.77Q191.07 13.16 191.07 11.93L191.07 11.93Q191.07 10.68 190.14 10.06Q189.21 9.45 187.47 9.45L187.47 9.45L182.77 9.45ZM212.71 24.98L212.71 24.98Q209.03 24.98 206.95 22.91Q204.87 20.84 204.87 16.94L204.87 16.94L204.87 6.85L208.19 6.85L208.19 16.81Q208.19 19.57 209.38 20.82Q210.57 22.07 212.74 22.07L212.74 22.07Q214.91 22.07 216.08 20.82Q217.26 19.57 217.26 16.81L217.26 16.81L217.26 6.85L220.53 6.85L220.53 16.94Q220.53 20.84 218.45 22.91Q216.36 24.98 212.71 24.98ZM239.12 24.73L231.31 24.73L231.31 6.85L239.12 6.85Q242.04 6.85 244.23 7.97Q246.43 9.09 247.66 11.09Q248.88 13.08 248.88 15.79L248.88 15.79Q248.88 18.47 247.66 20.47Q246.43 22.48 244.23 23.60Q242.04 24.73 239.12 24.73L239.12 24.73ZM234.63 9.66L234.63 21.92L238.97 21.92Q240.99 21.92 242.46 21.15Q243.93 20.38 244.73 19.01Q245.54 17.63 245.54 15.79L245.54 15.79Q245.54 13.92 244.73 12.56Q243.93 11.19 242.46 10.42Q240.99 9.66 238.97 9.66L238.97 9.66L234.63 9.66Z" transform="translate(0, 0)"></path></g></svg></g> <g transform="rotate(0 359.3170003051758 289.9740000762939)"><svg y="275.929" viewBox="4.230000019073486 3.0899999141693115 251.36000061035156 28.09000015258789" x="233.637" height="28.09000015258789" width="251.36000061035156" style="overflow: visible;"><g fill="#2B8FFC" fill-opacity="1" style=""><path d="M30.09 9.35L11.54 9.35L11.54 14.06L29.13 14.06L29.13 19.83L11.54 19.83L11.54 30.64L4.23 30.64L4.23 3.58L30.09 3.58L30.09 9.35ZM64.61 30.64L37.55 30.64L37.55 3.58L44.85 3.58L44.85 24.72L64.61 24.72L64.61 30.64ZM98.61 3.58L85.49 19.60L85.49 30.64L78.20 30.64L78.20 19.60L65.09 3.58L73.28 3.58L81.87 14.48L90.41 3.58L98.61 3.58ZM131.52 9.47L120.02 9.47L120.02 30.64L112.72 30.64L112.72 9.47L101.23 9.47L101.23 3.58L131.52 3.58L131.52 9.47ZM164.23 9.47L152.72 9.47L152.72 30.64L145.42 30.64L145.42 9.47L133.94 9.47L133.94 3.58L164.23 3.58L164.23 9.47ZM197.93 30.64L170.26 30.64L170.26 3.58L197.66 3.58L197.66 9.35L177.76 9.35L177.76 13.83L196.63 13.83L196.63 19.60L177.76 19.60L177.76 24.87L197.93 24.87L197.93 30.64ZM246.69 16.64L253.62 16.64Q253.25 19.40 251.89 21.68Q250.53 23.97 248.46 25.76L248.46 25.76Q250.18 26.98 251.96 28.20Q253.74 29.42 255.59 30.64L255.59 30.64L246.36 30.64Q245.02 29.80 243.70 28.87L243.70 28.87Q241.32 29.99 238.72 30.59Q236.12 31.18 233.54 31.18L233.54 31.18Q230.56 31.18 228.23 30.67Q225.89 30.17 224.29 29.19Q222.68 28.20 221.84 26.73Q220.99 25.27 220.99 23.34L220.99 23.34Q220.99 21.86 221.50 20.64Q222.01 19.42 222.89 18.41Q223.77 17.41 224.93 16.58Q226.09 15.76 227.37 15.07L227.37 15.07Q226.31 13.61 225.73 12.21Q225.15 10.81 225.15 9.47L225.15 9.47Q225.15 7.96 225.84 6.77Q226.52 5.59 227.86 4.78Q229.20 3.96 231.14 3.53Q233.08 3.09 235.60 3.09L235.60 3.09Q237.85 3.09 239.55 3.55Q241.26 4.02 242.39 4.81Q243.52 5.59 244.09 6.61Q244.66 7.62 244.66 8.70L244.66 8.70Q244.66 10.06 243.98 11.17Q243.30 12.27 242.18 13.20Q241.06 14.12 239.62 14.90Q238.18 15.68 236.65 16.37L236.65 16.37Q238.12 17.76 239.93 19.27Q241.73 20.78 243.86 22.37L243.86 22.37Q245.02 21.35 245.76 19.92Q246.49 18.49 246.69 16.64L246.69 16.64ZM233.65 25.88L233.65 25.88Q234.76 25.88 235.99 25.73Q237.22 25.58 238.50 25.25L238.50 25.25Q236.37 23.65 234.47 22.13Q232.57 20.60 230.96 19.06L230.96 19.06Q229.56 19.81 228.70 20.66Q227.84 21.51 227.84 22.53L227.84 22.53Q227.84 23.10 228.10 23.70Q228.36 24.30 229.02 24.79Q229.68 25.27 230.80 25.57Q231.92 25.88 233.65 25.88ZM232.00 9.87L232.00 9.87Q232.00 10.42 232.30 11.08Q232.59 11.74 233.14 12.53L233.14 12.53Q234.17 12.11 235.05 11.73Q235.94 11.34 236.60 10.96Q237.26 10.58 237.63 10.16Q238.01 9.75 238.01 9.28L238.01 9.28Q238.01 9.04 237.89 8.74Q237.77 8.45 237.47 8.19Q237.18 7.94 236.66 7.76Q236.14 7.58 235.31 7.58L235.31 7.58Q234.30 7.58 233.65 7.77Q233.00 7.96 232.64 8.26Q232.28 8.57 232.14 8.98Q232.00 9.39 232.00 9.87Z" transform="translate(0, 0)"></path></g></svg></g></svg>
                </g>
            </svg>
        